<svg width="185" height="32" viewBox="0 0 185 32" fill="none" xmlns="http://www.w3.org/2000/svg">
<path d="M3.96304 15.5555C2.38094 16.2267 1.07894 17.6109 0 19.7406C3.14216 19.2679 6.05869 17.5155 8.84942 15.2474C7.03907 14.9183 5.39731 14.9483 3.96434 15.5555H3.96304Z" fill="url(#paint0_linear_654_1051)"/>
<path d="M1.1582 21.7398C6.60869 25.0435 10.9335 22.0219 15.886 17.5665C14.326 16.9227 12.8373 16.3442 11.4276 15.9003C8.25823 18.6529 4.91246 20.9459 1.1582 21.7398Z" fill="url(#paint1_linear_654_1051)"/>
<path d="M32.5508 2.03787C26.4467 1.51555 21.3956 6.4097 16.045 11.5911C15.1282 12.4791 12.3608 15.0319 11.4258 15.9016C12.8523 16.4004 14.3955 16.9436 15.8842 17.5678C15.9555 17.5012 17.7905 15.8245 17.8631 15.7579C24.4211 9.70946 32.3238 2.42439 43.881 8.60736C39.8635 4.50714 36.1209 2.34343 32.5508 2.03787Z" fill="url(#paint2_linear_654_1051)"/>
<path d="M48.0376 15.4132C41.9672 14.7303 37.4647 17.4006 33.4316 20.8662C38.2999 21.2279 43.2381 19.9692 48.0376 15.4132Z" fill="url(#paint3_linear_654_1051)"/>
<path d="M18.084 18.4884C21.3908 19.8843 24.9713 21.3859 28.6945 22.287C33.0466 18.2977 39.9663 12.8734 46.8524 13.1437C34.6533 3.73541 25.3254 11.8196 18.084 18.4884Z" fill="url(#paint4_linear_654_1051)"/>
<path d="M6.53677 25.2759C5.67569 25.3543 4.79516 25.319 3.89258 25.1467C7.95937 28.765 11.5619 30.6062 14.8065 30.729C19.7525 30.9157 23.7169 27.091 27.9108 23.0417C28.1701 22.791 28.4308 22.5403 28.694 22.287C24.9709 21.3859 21.3904 19.8843 18.0835 18.4884C14.4551 21.7999 10.7177 24.8933 6.53547 25.2759H6.53677Z" fill="url(#paint5_linear_654_1051)"/>
<path d="M73.8543 31.6749H70.0586V23.9628H61.8485V31.6749H58.0527V13.8154H61.8485V20.6617H70.0586V13.8154H73.8543V31.6749Z" fill="#1E75AE"/>
<path d="M97.6421 22.7458C97.6421 27.9951 93.2835 32 87.8019 32C84.2032 32 81.1947 30.2946 79.5918 27.5616L82.459 25.6133C83.6962 27.508 85.4391 28.6167 87.7734 28.6167C90.8377 28.6167 93.1992 26.7219 93.6777 23.8544H85.4119V20.7427H93.4534C92.6662 18.3883 90.5018 16.8736 87.7734 16.8736C85.4391 16.8736 83.6962 17.9835 82.459 19.8769L79.5918 17.9287C81.2232 15.1956 84.2032 13.4902 87.7734 13.4902C93.2848 13.4902 97.6421 17.4951 97.6421 22.7445V22.7458Z" fill="#1E75AE"/>
<path d="M117.774 26.4255C117.774 29.5098 115.272 31.6749 111.672 31.6749H103.406V13.8154H109.985C113.415 13.8154 115.861 15.8446 115.861 18.7944C115.861 20.1198 115.355 21.2023 114.484 22.0145C116.536 22.7184 117.774 24.2605 117.774 26.4255ZM107.061 16.9545V21.0404H109.675C111.249 21.0404 112.094 20.2021 112.094 18.9838C112.094 17.7654 111.251 16.9545 109.675 16.9545H107.061ZM114.034 26.2897C114.034 24.9095 113.049 24.0437 111.391 24.0437H107.061V28.5357H111.391C113.049 28.5357 114.034 27.6974 114.034 26.2897Z" fill="#1E75AE"/>
<path d="M139.48 13.4902V31.6749H135.684V20.7153L124.634 32H123.396V13.8154H127.192V24.694L138.214 13.4916H139.48V13.4902Z" fill="#1E75AE"/>
<path d="M164.925 22.7458C164.925 27.9951 160.482 32 155.028 32C149.573 32 145.188 27.9951 145.188 22.7458C145.188 17.4964 149.573 13.4916 155.028 13.4916C160.482 13.4916 164.925 17.4964 164.925 22.7458ZM149.096 22.7458C149.096 26.2101 151.599 28.618 155.056 28.618C158.514 28.618 161.016 26.2101 161.016 22.7458C161.016 19.2815 158.458 16.8736 155.056 16.8736C151.655 16.8736 149.096 19.3089 149.096 22.7458Z" fill="#1E75AE"/>
<path d="M184.999 13.8154V31.6749H181.204V17.1165H176.565C176.481 28.5906 173.219 31.4855 168.523 31.8107V28.3738C171.504 28.0225 172.938 24.9369 172.938 17.1165V13.8154H184.999Z" fill="#1E75AE"/>
<defs>
<linearGradient id="paint0_linear_654_1051" x1="0" y1="17.3902" x2="8.84942" y2="17.3902" gradientUnits="userSpaceOnUse">
<stop stop-color="#3166AD"/>
<stop offset="0.9" stop-color="#489EC5"/>
</linearGradient>
<linearGradient id="paint1_linear_654_1051" x1="1.1582" y1="19.52" x2="15.886" y2="19.52" gradientUnits="userSpaceOnUse">
<stop stop-color="#3166AD"/>
<stop offset="0.9" stop-color="#489EC5"/>
</linearGradient>
<linearGradient id="paint2_linear_654_1051" x1="11.4271" y1="9.78389" x2="43.881" y2="9.78389" gradientUnits="userSpaceOnUse">
<stop stop-color="#3166AD"/>
<stop offset="0.9" stop-color="#489EC5"/>
</linearGradient>
<linearGradient id="paint3_linear_654_1051" x1="33.4303" y1="18.1162" x2="48.0376" y2="18.1162" gradientUnits="userSpaceOnUse">
<stop stop-color="#3166AD"/>
<stop offset="0.9" stop-color="#489EC5"/>
</linearGradient>
<linearGradient id="paint4_linear_654_1051" x1="18.084" y1="15.5764" x2="46.8524" y2="15.5764" gradientUnits="userSpaceOnUse">
<stop stop-color="#3166AD"/>
<stop offset="0.9" stop-color="#489EC5"/>
</linearGradient>
<linearGradient id="paint5_linear_654_1051" x1="3.89387" y1="24.6126" x2="28.6953" y2="24.6126" gradientUnits="userSpaceOnUse">
<stop stop-color="#3166AD"/>
<stop offset="0.9" stop-color="#489EC5"/>
</linearGradient>
</defs>
</svg>
