<svg width="48" height="64" viewBox="0 0 48 64" fill="none" xmlns="http://www.w3.org/2000/svg">
<g clip-path="url(#clip0_654_1036)">
<path d="M24 0C10.7525 0.0175 0.0175 10.7525 0 24C0 41.23 22.36 62.81 23.31 63.72C23.6938 64.0938 24.3062 64.0938 24.69 63.72C25.64 62.81 48 41.23 48 24C47.9825 10.7525 37.2475 0.0175 24 0ZM24 35C17.925 35 13 30.075 13 24C13 17.925 17.925 13 24 13C30.075 13 35 17.925 35 24C34.9963 30.0737 30.0737 34.9963 24 35Z" fill="#1E75AE"/>
</g>
<defs>
<clipPath id="clip0_654_1036">
<rect width="48" height="64" fill="white"/>
</clipPath>
</defs>
</svg>
